<svg width="1920" height="959" viewBox="0 0 1920 959" fill="none" xmlns="http://www.w3.org/2000/svg">
<rect width="1920" height="959" fill="white"/>
<rect width="1920" height="959" fill="white"/>
<path d="M1583 808C1583 891.395 1443.54 959 1271.5 959C1099.46 959 493.5 891.395 493.5 808C896 671 924 502.605 1216 610.5C1750.5 808 1975 575 1583 808Z" fill="#27498C"/>
<path d="M1512.65 807.645C1628.07 714.687 1771.81 664 1920 664V664V959H1679L1380.5 909.5L1470 842L1512.65 807.645Z" fill="#27498C"/>
<path d="M0 702.683C0 702.683 122.937 615.647 443.519 702.683C764.101 789.718 443.519 959 443.519 959H0V702.683Z" fill="#27498C"/>
<path d="M1847 943.453C1481.62 943.453 1375.92 943.453 971.783 943.453C567.65 943.453 299.111 943.453 36 959C36 800.841 335.867 699 740 699C1144.13 699 1526.3 879.561 1847 943.453Z" fill="#457AFF"/>
<path d="M0 699C0 699 457.5 913.563 935 913.563C1412.5 913.563 1920 699 1920 699V959H0V699Z" fill="white"/>
</svg>
